{
  "accessors": [
    {
      "bufferView": 2,
      "componentType": 5126,
      "count": 2455,
      "max": [
        11.073800086975098,
        186.6002960205078,
        35.740299224853516
      ],
      "min": [
        -8.505399703979492,
        -148.72740173339844,
        -52.031898498535156
      ],
      "type": "VEC3"
    },
    {
      "bufferView": 2,
      "byteOffset": 29460,
      "componentType": 5126,
      "count": 2455,
      "max": [
        1.0,
        1.0,
        1.0
      ],
      "min": [
        -1.0,
        -1.0,
        -1.0
      ],
      "type": "VEC3"
    },
    {
      "bufferView": 3,
      "componentType": 5126,
      "count": 2455,
      "max": [
        1.0,
        1.0,
        1.0,
        1.0
      ],
      "min": [
        -1.0,
        -1.0,
        -1.0,
        -1.0
      ],
      "type": "VEC4"
    },
    {
      "bufferView": 1,
      "componentType": 5126,
      "count": 2455,
      "max": [
        0.9948999881744385,
        0.9986000061035156
      ],
      "min": [
        0.002300000051036477,
        0.024800000712275505
      ],
      "type": "VEC2"
    },
    {
      "bufferView": 0,
      "componentType": 5125,
      "count": 5745,
      "type": "SCALAR"
    },
    {
      "bufferView": 2,
      "byteOffset": 58920,
      "componentType": 5126,
      "count": 2225,
      "max": [
        10.696000099182129,
        159.93870544433594,
        49.20560073852539
      ],
      "min": [
        -12.782999992370605,
        44.22100067138672,
        12.435999870300293
      ],
      "type": "VEC3"
    },
    {
      "bufferView": 2,
      "byteOffset": 85620,
      "componentType": 5126,
      "count": 2225,
      "max": [
        1.0,
        1.0,
        1.0
      ],
      "min": [
        -1.0,
        -1.0,
        -1.0
      ],
      "type": "VEC3"
    },
    {
      "bufferView": 3,
      "byteOffset": 39280,
      "componentType": 5126,
      "count": 2225,
      "max": [
        1.0,
        1.0,
        1.0,
        1.0
      ],
      "min": [
        -1.0,
        -1.0,
        -1.0,
        -1.0
      ],
      "type": "VEC4"
    },
    {
      "bufferView": 1,
      "byteOffset": 19640,
      "componentType": 5126,
      "count": 2225,
      "max": [
        0.9983999729156494,
        0.9932000041007996
      ],
      "min": [
        0.0052999998442828655,
        0.019300000742077827
      ],
      "type": "VEC2"
    },
    {
      "bufferView": 0,
      "byteOffset": 22980,
      "componentType": 5125,
      "count": 3582,
      "type": "SCALAR"
    },
    {
      "bufferView": 2,
      "byteOffset": 112320,
      "componentType": 5126,
      "count": 4420,
      "max": [
        15.844300270080566,
        169.1959991455078,
        46.83689880371094
      ],
      "min": [
        -9.406900405883789,
        -70.40119934082031,
        -43.759498596191406
      ],
      "type": "VEC3"
    },
    {
      "bufferView": 2,
      "byteOffset": 165360,
      "componentType": 5126,
      "count": 4420,
      "max": [
        1.0,
        1.0,
        1.0
      ],
      "min": [
        -1.0,
        -1.0,
        -1.0
      ],
      "type": "VEC3"
    },
    {
      "bufferView": 3,
      "byteOffset": 74880,
      "componentType": 5126,
      "count": 4420,
      "max": [
        1.0,
        1.0,
        1.0,
        1.0
      ],
      "min": [
        -1.0,
        -1.0,
        -1.0,
        -1.0
      ],
      "type": "VEC4"
    },
    {
      "bufferView": 1,
      "byteOffset": 37440,
      "componentType": 5126,
      "count": 4420,
      "max": [
        0.9945999979972839,
        0.9901999831199646
      ],
      "min": [
        0.005900000222027302,
        0.006399999838322401
      ],
      "type": "VEC2"
    },
    {
      "bufferView": 0,
      "byteOffset": 37308,
      "componentType": 5125,
      "count": 10266,
      "type": "SCALAR"
    }
  ],
  "asset": {
    "extras": {
      "author": "zzzs570 (https://sketchfab.com/zzzs570)",
      "license": "CC-BY-4.0 (http://creativecommons.org/licenses/by/4.0/)",
      "source": "https://sketchfab.com/3d-models/tactic-type-79-smg-3976dab8e966436e9605134dc7f0939a",
      "title": "Tactic Type-79 SMG"
    },
    "generator": "Sketchfab-15.71.0",
    "version": "2.0"
  },
  "bufferViews": [
    {
      "buffer": 0,
      "byteLength": 78372,
      "name": "floatBufferViews",
      "target": 34963
    },
    {
      "buffer": 0,
      "byteLength": 72800,
      "byteOffset": 78372,
      "byteStride": 8,
      "name": "floatBufferViews",
      "target": 34962
    },
    {
      "buffer": 0,
      "byteLength": 218400,
      "byteOffset": 151172,
      "byteStride": 12,
      "name": "floatBufferViews",
      "target": 34962
    },
    {
      "buffer": 0,
      "byteLength": 145600,
      "byteOffset": 369572,
      "byteStride": 16,
      "name": "floatBufferViews",
      "target": 34962
    }
  ],
  "buffers": [
    {
      "byteLength": 515172,
      "uri": "scene.bin"
    }
  ],
  "images": [
    {
      "uri": "textures/2_Base_Color_png_baseColor.png"
    },
    {
      "uri": "textures/2_Base_Color_png_metallicRoughness.png"
    },
    {
      "uri": "textures/2_Base_Color_png_normal.png"
    },
    {
      "uri": "textures/qb_Base_Color_png_baseColor.png"
    },
    {
      "uri": "textures/qb_Base_Color_png_metallicRoughness.png"
    },
    {
      "uri": "textures/qb_Base_Color_png_normal.png"
    },
    {
      "uri": "textures/sa2_Base_Color_png_baseColor.png"
    },
    {
      "uri": "textures/sa2_Base_Color_png_metallicRoughness.png"
    },
    {
      "uri": "textures/sa2_Base_Color_png_normal.png"
    }
  ],
  "materials": [
    {
      "doubleSided": true,
      "name": "2_Base_Color_png",
      "normalTexture": {
        "index": 2
      },
      "pbrMetallicRoughness": {
        "baseColorTexture": {
          "index": 0
        },
        "metallicRoughnessTexture": {
          "index": 1
        }
      }
    },
    {
      "doubleSided": true,
      "name": "qb_Base_Color_png",
      "normalTexture": {
        "index": 5
      },
      "pbrMetallicRoughness": {
        "baseColorTexture": {
          "index": 3
        },
        "metallicRoughnessTexture": {
          "index": 4
        }
      }
    },
    {
      "doubleSided": true,
      "name": "sa2_Base_Color_png",
      "normalTexture": {
        "index": 8
      },
      "pbrMetallicRoughness": {
        "baseColorTexture": {
          "index": 6
        },
        "metallicRoughnessTexture": {
          "index": 7
        }
      }
    }
  ],
  "meshes": [
    {
      "name": "Object_0",
      "primitives": [
        {
          "attributes": {
            "NORMAL": 1,
            "POSITION": 0,
            "TANGENT": 2,
            "TEXCOORD_0": 3
          },
          "indices": 4,
          "material": 1,
          "mode": 4
        }
      ]
    },
    {
      "name": "Object_1",
      "primitives": [
        {
          "attributes": {
            "NORMAL": 6,
            "POSITION": 5,
            "TANGENT": 7,
            "TEXCOORD_0": 8
          },
          "indices": 9,
          "material": 0,
          "mode": 4
        }
      ]
    },
    {
      "name": "Object_2",
      "primitives": [
        {
          "attributes": {
            "NORMAL": 11,
            "POSITION": 10,
            "TANGENT": 12,
            "TEXCOORD_0": 13
          },
          "indices": 14,
          "material": 2,
          "mode": 4
        }
      ]
    }
  ],
  "nodes": [
    {
      "children": [
        1
      ],
      "matrix": [
        0.004353419698749805,
        3.5582043877000685e-05,
        8.450670687467147e-05,
        0.0,
        8.114773593310455e-05,
        0.00037336944832101163,
        -0.004337589219456428,
        0.0,
        -4.269087566032177e-05,
        0.004338202256674695,
        0.00037262355825511573,
        0.0,
        0.0,
        0.0,
        0.0,
        1.0
      ],
      "name": "Sketchfab_model"
    },
    {
      "children": [
        2,
        3,
        4
      ],
      "name": "79.obj.cleaner.materialmerger.gles"
    },
    {
      "mesh": 0,
      "name": "Object_2"
    },
    {
      "mesh": 1,
      "name": "Object_3"
    },
    {
      "mesh": 2,
      "name": "Object_4"
    }
  ],
  "samplers": [
    {
      "magFilter": 9729,
      "minFilter": 9987,
      "wrapS": 10497,
      "wrapT": 10497
    }
  ],
  "scene": 0,
  "scenes": [
    {
      "name": "Sketchfab_Scene",
      "nodes": [
        0
      ]
    }
  ],
  "textures": [
    {
      "sampler": 0,
      "source": 0
    },
    {
      "sampler": 0,
      "source": 1
    },
    {
      "sampler": 0,
      "source": 2
    },
    {
      "sampler": 0,
      "source": 3
    },
    {
      "sampler": 0,
      "source": 4
    },
    {
      "sampler": 0,
      "source": 5
    },
    {
      "sampler": 0,
      "source": 6
    },
    {
      "sampler": 0,
      "source": 7
    },
    {
      "sampler": 0,
      "source": 8
    }
  ]
}
